<?xml version="1.0" encoding="UTF-8" standalone="no"?>
<svg
   width="270mm"
   height="220mm"
   viewBox="0 0 1020.4725 831.49611"
   fill="none"
   version="1.1"
   id="svg8"
   sodipodi:docname="garlic-portrait2.svg"
   inkscape:version="1.4-dev (3115e27fb3, 2024-03-16, custom)"
   inkscape:export-filename="garlic-portrait2.png"
   inkscape:export-xdpi="2.54"
   inkscape:export-ydpi="2.54"
   xml:space="preserve"
   xmlns:inkscape="http://www.inkscape.org/namespaces/inkscape"
   xmlns:sodipodi="http://sodipodi.sourceforge.net/DTD/sodipodi-0.dtd"
   xmlns:xlink="http://www.w3.org/1999/xlink"
   xmlns="http://www.w3.org/2000/svg"
   xmlns:svg="http://www.w3.org/2000/svg"><sodipodi:namedview
     id="namedview8"
     pagecolor="#000000"
     bordercolor="#000000"
     borderopacity="0.25"
     inkscape:showpageshadow="2"
     inkscape:pageopacity="0.0"
     inkscape:pagecheckerboard="0"
     inkscape:deskcolor="#d1d1d1"
     inkscape:zoom="0.50760802"
     inkscape:cx="421.58514"
     inkscape:cy="198.97243"
     inkscape:window-width="1916"
     inkscape:window-height="1161"
     inkscape:window-x="0"
     inkscape:window-y="18"
     inkscape:window-maximized="1"
     inkscape:current-layer="layer1"
     inkscape:document-units="mm"
     inkscape:export-bgcolor="#000000ff"
     showguides="true"
     inkscape:rotation="90"><sodipodi:guide
       position="320.39402,-423.61261"
       orientation="0,-1"
       id="guide3"
       inkscape:locked="false" /></sodipodi:namedview><style
     id="style5">
.measure-arrow
{
}
.measure-label
{

}
.measure-line
{
}</style><defs
     id="defs8" /><g
     inkscape:groupmode="layer"
     id="layer2"
     inkscape:label="mask"
     transform="translate(-68.5999,36.9383)"
     style="display:inline"><image
       width="1020.4725"
       height="831.49603"
       preserveAspectRatio="none"
       style="image-rendering:optimizeSpeed"
       xlink:href="mask-inverted.png"
       id="image1-6"
       x="68.599899"
       y="-36.938206" /></g><g
     inkscape:groupmode="layer"
     id="layer1"
     inkscape:label="garlic"><path
       style="fill:none;stroke:#ffffff;stroke-width:75.59055795;stroke-linecap:round;stroke-linejoin:round;stroke-miterlimit:1;stroke-dasharray:none"
       d="m 214.18322,443.55397 c 54.78319,5.80128 244.33113,175.34449 432.57153,169.9515 163.40963,-4.6816 237.07,-131.76744 219.74919,-234.47826 -17.33529,-102.79671 -146.20611,-171.89424 -286.45799,-159.813 -111.74823,9.62594 -173.60894,71.3049 -241.43475,130.86915 -89.9589,79.00139 -168.76204,72.2833 -195.70028,89.94101 18.75933,1.02799 16.48912,-2.27167 71.2723,3.5296 z"
       id="path1"
       sodipodi:nodetypes="zsssscz" /><path
       style="fill:none;stroke:#ffffff;stroke-width:75.59055795;stroke-miterlimit:1;stroke-dasharray:none"
       d="m 264.45596,469.79424 c 69.46862,34.75561 128.60088,170.03327 230.76336,254.4878 102.16248,84.45452 238.39913,83.55794 329.09825,26.10165 108.09471,-68.47609 54.90496,-195.6033 -9.21546,-228.22443"
       id="path2"
       sodipodi:nodetypes="czsc" /><path
       style="fill:none;stroke:#ffffff;stroke-width:75.59055795;stroke-miterlimit:1;stroke-dasharray:none"
       d="M 318.63425,355.63784 C 399.4218,181.48475 576.46915,-27.440996 794.73997,71.540324 881.42661,110.85093 881.80056,206.80076 835.87616,287.18214"
       id="path3"
       sodipodi:nodetypes="csc" /><path
       id="path4"
       style="fill:#00ff00;stroke-width:94.4882;stroke-linecap:round;stroke-linejoin:round;stroke-miterlimit:1"
       d="M 306.33876,425.52521 C 305.70185,484.2577 236.81869,516.66012 157.54218,497.32184 103.02894,484.02417 0.03924358,425.52521 0.03924358,425.52521 c 0,0 107.97449642,-54.17567 158.54769642,-67.96584 78.72677,-21.46701 148.38873,9.23335 147.75182,67.96584 z"
       sodipodi:nodetypes="zscsz" /></g></svg>
